<svg width="1354" height="1354" viewBox="0 0 1354 1354" fill="none" xmlns="http://www.w3.org/2000/svg">
<rect width="1353.85" height="1353.85" rx="676.923" fill="#131516"/>
<path d="M664.273 524.075C750.454 517.125 825.892 580.999 832.474 666.483C839.046 751.967 774.243 826.445 688.001 832.536C602.367 838.578 527.905 774.883 521.373 690.007C514.841 605.131 578.708 530.976 664.273 524.075Z" fill="#FFCC00"/>
<path d="M217.422 710.799C225.94 710.799 251.693 695.509 322.708 650.679C368.519 621.761 283.54 606.736 264.067 630.035C238.255 660.917 274.051 753.552 317.191 729.415C330.163 722.157 336.291 713.232 344.68 701.627" stroke="#FFCC00" stroke-width="18.5096" stroke-linecap="round"/>
<path d="M384.344 692.825C386.512 692.825 391.965 708.001 397.451 727.743C403.312 748.835 396.367 668.845 411.1 636.013C440.313 570.91 539.335 682.37 492.746 728.959" stroke="#FFCC00" stroke-width="18.5096" stroke-linecap="round"/>
<path d="M622.669 617.42C602.744 614.477 573.45 613.288 573.45 650.149C576.964 676.894 608.603 665.607 639.373 693.181C650.786 707.225 636.177 721.145 625.007 726.25C606.396 734.757 590.118 730.511 571.154 721.972" stroke="#131516" stroke-width="18.5096" stroke-linecap="round"/>
<path d="M163.776 618.6C139.096 618.6 103.557 662.675 111.327 688.278C118.577 712.172 149.348 707.851 159.019 692.112C168.175 677.21 169.428 647.161 168.175 628.651C167.437 617.752 174.439 658.05 176.643 677.21C181.587 720.182 170.766 760.493 130.562 779.659C99.8638 794.293 72.4163 769.563 80.882 756.128" stroke="#FFCC00" stroke-width="18.5096" stroke-linecap="round"/>
<path d="M731.923 743.885V646.249C731.923 637.379 733.362 630.007 736.238 624.133C739.115 618.259 743.311 613.884 748.825 611.007C754.459 608.13 761.412 606.691 769.683 606.691C772.68 606.691 775.317 606.871 777.594 607.231C779.992 607.591 782.089 608.13 783.888 608.849V625.391H782.269C780.591 624.792 778.853 624.313 777.055 623.953C775.377 623.474 773.159 623.234 770.402 623.234C763.449 623.234 758.655 625.092 756.017 628.808C753.38 632.404 752.062 638.278 752.062 646.429V743.885H731.923ZM716.639 662.791V645.89H778.493V662.791H716.639Z" fill="#131516"/>
<path d="M864.653 631.991C861.297 631.991 858.42 630.912 856.022 628.755C853.625 626.597 852.426 623.66 852.426 619.944C852.426 616.228 853.625 613.291 856.022 611.134C858.42 608.976 861.297 607.897 864.653 607.897C868.249 607.897 871.186 608.976 873.464 611.134C875.741 613.291 876.88 616.228 876.88 619.944C876.88 623.66 875.741 626.597 873.464 628.755C871.186 630.912 868.249 631.991 864.653 631.991ZM854.584 746.529V679.281C854.584 676.883 854.524 673.827 854.404 670.111C854.404 666.275 854.284 662.499 854.044 658.783C853.924 655.067 853.625 652.13 853.145 649.972L853.505 648.534H874.722V746.529H854.584ZM984.035 748.147C975.045 748.147 967.074 747.068 960.121 744.911C953.288 742.753 947.534 739.576 942.859 735.381C938.184 731.065 934.648 725.731 932.251 719.378C929.973 713.025 928.834 705.653 928.834 697.261C928.834 686.833 930.752 677.842 934.588 670.29C938.424 662.619 943.818 656.745 950.771 652.669C957.724 648.474 965.935 646.376 975.405 646.376C986.073 646.376 994.704 648.594 1001.3 653.029C1007.89 657.344 1012.62 663.458 1015.5 671.369C1018.5 679.161 1019.76 688.211 1019.28 698.52L1019.1 703.914H942.32V689.17H998.959V687.732C998.959 679.461 996.982 673.227 993.026 669.032C989.07 664.716 983.136 662.559 975.225 662.559C970.55 662.559 966.234 663.578 962.279 665.615C958.323 667.653 955.146 671.129 952.749 676.044C950.471 680.839 949.333 687.372 949.333 695.643V697.981C949.333 706.492 950.831 713.204 953.828 718.119C956.944 722.914 961.2 726.33 966.594 728.368C972.108 730.406 978.341 731.425 985.294 731.425C991.288 731.425 996.442 730.886 1000.76 729.807C1005.19 728.608 1008.67 727.289 1011.19 725.851H1012.8V742.933C1009.69 744.371 1005.73 745.57 1000.94 746.529C996.262 747.608 990.628 748.147 984.035 748.147ZM1073.49 746.529V640.622C1073.49 638.225 1073.43 635.108 1073.31 631.272C1073.31 627.436 1073.19 623.72 1072.95 620.124C1072.83 616.408 1072.53 613.471 1072.05 611.313L1072.41 609.875H1093.63V746.529H1073.49ZM1199.53 748.687C1188.62 748.687 1179.27 746.709 1171.48 742.753C1163.81 738.797 1157.93 732.983 1153.86 725.311C1149.78 717.64 1147.74 708.29 1147.74 697.261C1147.74 686.593 1149.9 677.483 1154.22 669.931C1158.53 662.259 1164.59 656.445 1172.38 652.489C1180.17 648.414 1189.28 646.376 1199.71 646.376C1203.9 646.376 1207.62 646.676 1210.86 647.275C1214.21 647.874 1216.79 648.594 1218.59 649.433L1218.05 665.975C1216.61 665.376 1214.51 664.716 1211.75 663.997C1209.12 663.278 1205.76 662.918 1201.69 662.918C1190.78 662.918 1182.45 665.915 1176.69 671.909C1171.06 677.782 1168.24 686.233 1168.24 697.261C1168.24 705.053 1169.44 711.526 1171.84 716.681C1174.35 721.835 1178.01 725.731 1182.81 728.368C1187.72 730.886 1193.71 732.144 1200.79 732.144C1204.86 732.144 1208.4 731.785 1211.4 731.065C1214.51 730.346 1217.27 729.447 1219.67 728.368L1216.97 734.122C1216.37 732.084 1215.95 729.687 1215.71 726.93C1215.47 724.053 1215.35 721.056 1215.35 717.939V641.341C1215.35 638.824 1215.29 635.587 1215.17 631.632C1215.05 627.676 1214.87 623.84 1214.63 620.124C1214.51 616.288 1214.21 613.351 1213.73 611.313L1214.09 609.875H1235.49V710.747C1235.49 713.145 1235.49 716.261 1235.49 720.097C1235.61 723.933 1235.73 727.709 1235.85 731.425C1236.09 735.021 1236.45 737.898 1236.93 740.056L1236.39 741.494C1231.35 743.412 1225.78 745.09 1219.67 746.529C1213.67 747.967 1206.96 748.687 1199.53 748.687Z" fill="#FFCC00"/>
</svg>
