<svg width="512" height="512" viewBox="0 0 512 512" fill="none" xmlns="http://www.w3.org/2000/svg">
<rect width="512" height="512" rx="256" fill="black"/>
<path d="M251.216 198.196C283.808 195.567 312.337 219.723 314.826 252.052C317.312 284.38 292.804 312.547 260.189 314.85C227.804 317.135 199.644 293.047 197.174 260.948C194.703 228.85 218.857 200.806 251.216 198.196Z" fill="white"/>
<path d="M82.2251 268.811C85.4464 268.811 95.1857 263.029 122.042 246.075C139.367 235.139 107.23 229.456 99.8652 238.268C90.1036 249.947 103.641 284.98 119.956 275.852C124.862 273.107 127.179 269.731 130.352 265.343" stroke="white" stroke-width="7" stroke-linecap="round"/>
<path d="M145.352 262.014C146.172 262.014 148.234 267.753 150.309 275.219C152.525 283.196 149.899 252.945 155.47 240.528C166.518 215.908 203.966 258.06 186.348 275.679" stroke="white" stroke-width="7" stroke-linecap="round"/>
<path d="M235.482 233.497C227.947 232.384 216.868 231.934 216.868 245.875C218.197 255.989 230.162 251.721 241.799 262.148C246.115 267.46 240.591 272.724 236.366 274.655C229.328 277.872 223.172 276.266 216 273.037" stroke="black" stroke-width="7" stroke-linecap="round"/>
<path d="M61.937 233.943C52.6035 233.943 39.1635 250.612 42.1017 260.294C44.8438 269.331 56.4808 267.697 60.138 261.744C63.6006 256.108 64.0744 244.744 63.6007 237.744C63.3217 233.623 65.9696 248.863 66.8032 256.108C68.6729 272.36 64.5806 287.605 49.3761 294.853C37.7667 300.387 27.3865 291.035 30.5881 285.954" stroke="white" stroke-width="7" stroke-linecap="round"/>
<path d="M276.8 281V244.076C276.8 240.721 277.344 237.933 278.432 235.712C279.52 233.491 281.107 231.836 283.192 230.748C285.323 229.66 287.952 229.116 291.08 229.116C292.213 229.116 293.211 229.184 294.072 229.32C294.979 229.456 295.772 229.66 296.452 229.932V236.188H295.84C295.205 235.961 294.548 235.78 293.868 235.644C293.233 235.463 292.395 235.372 291.352 235.372C288.723 235.372 286.909 236.075 285.912 237.48C284.915 238.84 284.416 241.061 284.416 244.144V281H276.8ZM271.02 250.332V243.94H294.412V250.332H271.02Z" fill="black"/>
<path d="M326.996 238.684C325.727 238.684 324.639 238.276 323.732 237.46C322.825 236.644 322.372 235.533 322.372 234.128C322.372 232.723 322.825 231.612 323.732 230.796C324.639 229.98 325.727 229.572 326.996 229.572C328.356 229.572 329.467 229.98 330.328 230.796C331.189 231.612 331.62 232.723 331.62 234.128C331.62 235.533 331.189 236.644 330.328 237.46C329.467 238.276 328.356 238.684 326.996 238.684ZM323.188 282V256.568C323.188 255.661 323.165 254.505 323.12 253.1C323.12 251.649 323.075 250.221 322.984 248.816C322.939 247.411 322.825 246.3 322.644 245.484L322.78 244.94H330.804V282H323.188ZM372.144 282.612C368.744 282.612 365.73 282.204 363.1 281.388C360.516 280.572 358.34 279.371 356.572 277.784C354.804 276.152 353.467 274.135 352.56 271.732C351.699 269.329 351.268 266.541 351.268 263.368C351.268 259.424 351.994 256.024 353.444 253.168C354.895 250.267 356.935 248.045 359.564 246.504C362.194 244.917 365.299 244.124 368.88 244.124C372.915 244.124 376.179 244.963 378.672 246.64C381.166 248.272 382.956 250.584 384.044 253.576C385.178 256.523 385.654 259.945 385.472 263.844L385.404 265.884H356.368V260.308H377.788V259.764C377.788 256.636 377.04 254.279 375.544 252.692C374.048 251.06 371.804 250.244 368.812 250.244C367.044 250.244 365.412 250.629 363.916 251.4C362.42 252.171 361.219 253.485 360.312 255.344C359.451 257.157 359.02 259.628 359.02 262.756V263.64C359.02 266.859 359.587 269.397 360.72 271.256C361.899 273.069 363.508 274.361 365.548 275.132C367.634 275.903 369.991 276.288 372.62 276.288C374.887 276.288 376.836 276.084 378.468 275.676C380.146 275.223 381.46 274.724 382.412 274.18H383.024V280.64C381.846 281.184 380.35 281.637 378.536 282C376.768 282.408 374.638 282.612 372.144 282.612ZM405.975 282V241.948C405.975 241.041 405.953 239.863 405.907 238.412C405.907 236.961 405.862 235.556 405.771 234.196C405.726 232.791 405.613 231.68 405.431 230.864L405.567 230.32H413.591V282H405.975ZM453.64 282.816C449.514 282.816 445.978 282.068 443.032 280.572C440.13 279.076 437.909 276.877 436.368 273.976C434.826 271.075 434.056 267.539 434.056 263.368C434.056 259.333 434.872 255.888 436.504 253.032C438.136 250.131 440.425 247.932 443.372 246.436C446.318 244.895 449.764 244.124 453.708 244.124C455.294 244.124 456.7 244.237 457.924 244.464C459.193 244.691 460.168 244.963 460.848 245.28L460.644 251.536C460.1 251.309 459.306 251.06 458.264 250.788C457.266 250.516 455.997 250.38 454.456 250.38C450.33 250.38 447.18 251.513 445.004 253.78C442.873 256.001 441.808 259.197 441.808 263.368C441.808 266.315 442.261 268.763 443.168 270.712C444.12 272.661 445.502 274.135 447.316 275.132C449.174 276.084 451.441 276.56 454.116 276.56C455.657 276.56 456.994 276.424 458.128 276.152C459.306 275.88 460.349 275.54 461.256 275.132L460.236 277.308C460.009 276.537 459.85 275.631 459.76 274.588C459.669 273.5 459.624 272.367 459.624 271.188V242.22C459.624 241.268 459.601 240.044 459.556 238.548C459.51 237.052 459.442 235.601 459.352 234.196C459.306 232.745 459.193 231.635 459.012 230.864L459.148 230.32H467.24V268.468C467.24 269.375 467.24 270.553 467.24 272.004C467.285 273.455 467.33 274.883 467.376 276.288C467.466 277.648 467.602 278.736 467.784 279.552L467.58 280.096C465.676 280.821 463.568 281.456 461.256 282C458.989 282.544 456.45 282.816 453.64 282.816Z" fill="white"/>
</svg>
