<svg width="805" height="805" viewBox="0 0 805 805" fill="none" xmlns="http://www.w3.org/2000/svg">
<path d="M621.189 205.553C586.521 166.897 542.245 138.1 492.853 122.085C443.461 106.069 390.711 103.404 339.957 114.361C289.202 125.318 242.25 149.506 203.863 184.472C165.477 219.437 137.024 263.935 121.391 313.449C105.758 362.964 103.501 415.733 114.85 466.401C126.2 517.069 150.751 563.833 186.012 601.948C221.273 640.062 265.99 668.17 315.624 683.42C365.258 698.669 418.043 700.517 468.622 688.776L443.736 581.571C412.069 588.922 379.021 587.765 347.946 578.218C316.871 568.67 288.875 551.072 266.798 527.209C244.721 503.346 229.35 474.068 222.245 442.345C215.139 410.623 216.552 377.585 226.339 346.584C236.127 315.584 253.941 287.725 277.974 265.833C302.007 243.942 331.404 228.798 363.181 221.938C394.957 215.078 427.983 216.746 458.907 226.774C489.83 236.801 517.551 254.83 539.256 279.032L621.189 205.553Z" fill="white"/>
<path d="M696.068 416.044C693.565 468.693 676.97 519.704 648.016 563.748C619.062 607.792 578.813 643.253 531.471 666.427L449.131 498.213C466.348 489.785 480.987 476.888 491.517 460.869C502.048 444.851 508.083 426.298 508.994 407.15L696.068 416.044Z" fill="#DADA00"/>
</svg>
